HIERARCHY
ROOT Hips
{
	OFFSET 0.000000 0.000000 0.000000
	CHANNELS 6 Xposition Yposition Zposition Zrotation Yrotation Xrotation 
	JOINT LowerBack
	{
		OFFSET 0.000000 0.000000 0.000000
		CHANNELS 3 Zrotation Yrotation Xrotation
		JOINT Spine
		{
			OFFSET 0.028270 2.035590 -0.193380
			CHANNELS 3 Zrotation Yrotation Xrotation
			JOINT Spine1
			{
				OFFSET 0.056720 2.048850 -0.042750
				CHANNELS 3 Zrotation Yrotation Xrotation
				JOINT Neck
				{
					OFFSET 0.000000 0.000000 0.000000
					CHANNELS 3 Zrotation Yrotation Xrotation
					JOINT Neck1
					{
						OFFSET -0.054170 1.746240 0.172020
						CHANNELS 3 Zrotation Yrotation Xrotation
						JOINT Head
						{
							OFFSET 0.104070 1.761360 -0.123970
							CHANNELS 3 Zrotation Yrotation Xrotation
							End Site
							{
								OFFSET 0.000000 0.000000 0.000000
							}
						}
					}
				}
				JOINT LeftShoulder
				{
					OFFSET 0.000000 0.000000 0.000000
					CHANNELS 3 Zrotation Yrotation Xrotation
					JOINT LeftArm
					{
						OFFSET 3.362410 1.200890 -0.311210
						CHANNELS 3 Zrotation Yrotation Xrotation
						JOINT LeftForeArm
						{
							OFFSET 4.983000 -0.000000 -0.000000
							CHANNELS 3 Zrotation Yrotation Xrotation
							JOINT LeftHand
							{
								OFFSET 3.483560 -0.000000 -0.000000
								CHANNELS 3 Zrotation Yrotation Xrotation
								JOINT LeftFingerBase
								{
									OFFSET 0.000000 0.000000 0.000000
									CHANNELS 3 Zrotation Yrotation Xrotation
									JOINT LeftHandIndex1
									{
										OFFSET 0.715260 -0.000000 -0.000000
										CHANNELS 3 Zrotation Yrotation Xrotation
										End Site
										{
											OFFSET 0.000000 0.000000 0.000000
										}
									}
								}
								JOINT LThumb
								{
									OFFSET 0.000000 0.000000 0.000000
									CHANNELS 3 Zrotation Yrotation Xrotation
									End Site
									{
										OFFSET 0.000000 0.000000 0.000000
									}
								}
							}
						}
					}
				}
				JOINT RightShoulder
				{
					OFFSET 0.000000 0.000000 0.000000
					CHANNELS 3 Zrotation Yrotation Xrotation
					JOINT RightArm
					{
						OFFSET -3.136600 1.374050 -0.404650
						CHANNELS 3 Zrotation Yrotation Xrotation
						JOINT RightForeArm
						{
							OFFSET -5.241900 -0.000000 -0.000000
							CHANNELS 3 Zrotation Yrotation Xrotation
							JOINT RightHand
							{
								OFFSET -3.444170 -0.000000 -0.000000
								CHANNELS 3 Zrotation Yrotation Xrotation
								JOINT RightFingerBase
								{
									OFFSET 0.000000 0.000000 0.000000
									CHANNELS 3 Zrotation Yrotation Xrotation
									JOINT RightHandIndex1
									{
										OFFSET -0.622530 -0.000000 -0.000000
										CHANNELS 3 Zrotation Yrotation Xrotation
										End Site
										{
											OFFSET 0.000000 0.000000 0.000000
										}
									}
								}
								JOINT RThumb
								{
									OFFSET 0.000000 0.000000 0.000000
									CHANNELS 3 Zrotation Yrotation Xrotation
									End Site
									{
										OFFSET 0.000000 0.000000 0.000000
									}
								}
							}
						}
					}
				}
			}
		}
	}
}
}
MOTION
Frames: 9
Frame Time: 0.008333
4.486053 16.971421 4.772305 6.094296 32.405702 12.573351 2.363438 -6.354013 -6.048072 0.548605 -6.702797 -3.560878 -4.960954 -6.800460 2.051085 8.686897 -19.000872 -9.143577 -3.389227 -0.246941 -0.309304 0.000000 0.000000 0.000000 0.793769 3.762950 0.123957 -52.529465 -11.663678 -3.951817 -1.231392 -70.112673 -0.038857 7.541804 -1.257416 -0.105248 -0.112467 0.347499 -0.000000 0.000000 0.000000 0.000000 0.000000 0.000000 0.000000 16.143089 -18.732746 0.368982 56.107847 -4.212698 -14.745724 2.934749 38.225802 0.005576 -1.641741 2.938366 -0.046220 0.132016 -0.082143 -0.000000 0.000000 0.000000 0.000000 0.000000 0.000000 0.000000 
4.554120 16.975582 4.897334 5.571050 31.676187 12.201147 2.702462 -6.245085 -6.066019 0.604754 -6.626631 -3.577275 -4.993614 -6.723693 2.020970 8.715742 -18.824390 -9.099902 -3.417246 -0.249880 -0.298342 0.000000 0.000000 0.000000 0.634807 3.834328 0.123373 -53.490578 -11.219999 -3.668555 -1.279821 -69.562035 -0.036772 7.342020 -1.209090 -0.098671 -0.110799 0.339210 -0.000000 0.000000 0.000000 0.000000 0.000000 0.000000 0.000000 16.224891 -18.491315 0.357770 56.187388 -3.540738 -14.483330 2.922313 38.371176 0.005422 -1.633899 2.907510 -0.045516 0.130952 -0.083796 -0.000000 0.000000 0.000000 0.000000 0.000000 0.000000 0.000000 
4.618300 16.978513 5.018755 5.067823 30.924283 11.845753 3.014257 -6.134351 -6.040235 0.650760 -6.545405 -3.585382 -5.037225 -6.641275 1.983999 8.770280 -18.602790 -9.057381 -3.447880 -0.252907 -0.288171 0.000000 0.000000 0.000000 0.512531 3.902333 0.129105 -54.451204 -10.759236 -3.457025 -1.327627 -68.943104 -0.035018 7.193459 -1.174929 -0.094000 -0.109496 0.330959 -0.000000 0.000000 0.000000 0.000000 0.000000 0.000000 0.000000 16.336421 -18.204752 0.350654 56.322162 -2.824394 -14.207096 2.907814 38.493504 0.005258 -1.643905 2.889504 -0.045513 0.129742 -0.085601 -0.000000 0.000000 0.000000 0.000000 0.000000 0.000000 0.000000 
4.678214 16.980473 5.136643 4.601068 30.154987 11.512167 3.281678 -6.025725 -5.969327 0.683506 -6.461246 -3.584308 -5.091233 -6.555375 1.941620 8.852938 -18.347534 -9.017508 -3.481025 -0.255991 -0.279173 0.000000 0.000000 0.000000 0.426941 3.961537 0.140631 -55.401225 -10.274795 -3.319889 -1.373698 -68.265528 -0.033598 7.101841 -1.159468 -0.091338 -0.108539 0.322714 -0.000000 0.000000 0.000000 0.000000 0.000000 0.000000 0.000000 16.483051 -17.887363 0.346961 56.508848 -2.046855 -13.899718 2.891830 38.577372 0.005100 -1.679088 2.893447 -0.046410 0.128455 -0.087560 -0.000000 0.000000 0.000000 0.000000 0.000000 0.000000 0.000000 
4.733822 16.981796 5.251125 4.170192 29.366798 11.191026 3.500668 -5.919338 -5.848833 0.702884 -6.373685 -3.574091 -5.156321 -6.465739 1.891559 8.962936 -18.045442 -8.975443 -3.517995 -0.259283 -0.270078 0.000000 0.000000 0.000000 0.375947 4.014014 0.159931 -56.334975 -9.769020 -3.253127 -1.418223 -67.528254 -0.032480 7.069256 -1.167045 -0.090882 -0.107938 0.314434 -0.000000 0.000000 0.000000 0.000000 0.000000 0.000000 0.000000 16.667511 -17.525251 0.345238 56.745701 -1.231083 -13.565914 2.873601 38.630887 0.004954 -1.734635 2.923841 -0.048406 0.127005 -0.089669 -0.000000 0.000000 0.000000 0.000000 0.000000 0.000000 0.000000 
4.785018 16.982987 5.362570 3.783032 28.563512 10.885473 3.662379 -5.816787 -5.684900 0.707437 -6.283609 -3.555515 -5.231921 -6.373314 1.835263 9.099601 -17.700012 -8.929373 -3.559154 -0.262840 -0.260368 0.000000 0.000000 0.000000 0.355557 4.060750 0.186797 -57.245488 -9.242272 -3.251108 -1.461220 -66.731715 -0.031618 7.093852 -1.199653 -0.092731 -0.107647 0.306029 -0.000000 0.000000 0.000000 0.000000 0.000000 0.000000 0.000000 16.892462 -17.122564 0.343931 57.029795 -0.380175 -13.199079 2.853536 38.648892 0.004824 -1.808648 2.983320 -0.051302 0.125392 -0.091894 -0.000000 0.000000 0.000000 0.000000 0.000000 0.000000 0.000000 
4.831714 16.984493 5.471619 3.449157 27.753902 10.608825 3.758022 -5.720685 -5.494746 0.695587 -6.193382 -3.530678 -5.316376 -6.280431 1.777129 9.261495 -17.329259 -8.880251 -3.603957 -0.266635 -0.250193 0.000000 0.000000 0.000000 0.358673 4.100204 0.219335 -58.123697 -8.690372 -3.308589 -1.502620 -65.879766 -0.030948 7.170127 -1.255044 -0.096786 -0.107567 0.297345 -0.000000 0.000000 0.000000 0.000000 0.000000 0.000000 0.000000 17.158837 -16.699128 0.341621 57.356361 0.520714 -12.779831 2.833082 38.615806 0.004714 -1.902445 3.074034 -0.055396 0.123697 -0.094188 -0.000000 0.000000 0.000000 0.000000 0.000000 0.000000 0.000000 
4.874074 16.986743 5.578774 3.167048 26.941775 10.360326 3.788053 -5.630254 -5.287805 0.667680 -6.102682 -3.501741 -5.409479 -6.186867 1.717058 9.444475 -16.919727 -8.822029 -3.653206 -0.270811 -0.237917 0.000000 0.000000 0.000000 0.380843 4.141207 0.258576 -58.967753 -8.125243 -3.412207 -1.543888 -64.959790 -0.030382 7.289111 -1.331205 -0.102845 -0.107673 0.288295 -0.000000 0.000000 0.000000 0.000000 0.000000 0.000000 0.000000 17.464040 -16.239227 0.336270 57.726623 1.436922 -12.321779 2.811614 38.547206 0.004625 -2.001259 3.188843 -0.060291 0.121785 -0.096487 -0.000000 0.000000 0.000000 0.000000 0.000000 0.000000 0.000000 
4.912206 16.990072 5.684746 2.936953 26.130771 10.146430 3.752360 -5.545166 -5.079567 0.624854 -6.011836 -3.470666 -5.508123 -6.093079 1.660483 9.644664 -16.497027 -8.757593 -3.705176 -0.275227 -0.224202 0.000000 0.000000 0.000000 0.412906 4.186222 0.301924 -59.771939 -7.546255 -3.554209 -1.585526 -63.972323 -0.029844 7.439346 -1.421308 -0.110309 -0.107825 0.278707 -0.000000 0.000000 0.000000 0.000000 0.000000 0.000000 0.000000 17.803348 -15.769573 0.326415 58.136759 2.390434 -11.800607 2.790754 38.424583 0.004549 -2.106279 3.324405 -0.065886 0.119769 -0.098736 -0.000000 0.000000 0.000000 0.000000 0.000000 0.000000 0.000000 
